<svg viewBox="0 0 186 207" fill="none" xmlns="http://www.w3.org/2000/svg">
<circle cx="105.123" cy="160.96" r="11.5" fill="#E7F9EA"/>
<path d="M57.0272 107.185L56.2909 107.328L56.434 108.065L57.1703 107.921L57.0272 107.185ZM124.275 87.1774L124.557 87.8724L125.252 87.5905L124.97 86.8955L124.275 87.1774ZM123.811 87.3653L123.116 87.6471L123.398 88.3422L124.093 88.0603L123.811 87.3653ZM57.518 107.09L57.6611 107.826L58.3973 107.683L58.2542 106.947L57.518 107.09ZM126.219 93.7357L126.955 93.5926L126.812 92.8564L126.076 92.9995L126.219 93.7357ZM58.7731 113.244L58.502 112.544L57.8027 112.815L58.0739 113.515L58.7731 113.244ZM59.2393 113.063L59.9386 112.792L59.6674 112.092L58.9681 112.363L59.2393 113.063ZM125.728 93.8311L125.585 93.0949L124.849 93.238L124.992 93.9742L125.728 93.8311ZM84.7552 65.1283C65.2418 68.9214 52.4979 87.815 56.2909 107.328L57.7634 107.042C54.1284 88.342 66.3412 70.2357 85.0414 66.6008L84.7552 65.1283ZM124.97 86.8955C118.631 71.2664 101.934 61.789 84.7552 65.1283L85.0414 66.6008C101.503 63.401 117.506 72.4822 123.58 87.4592L124.97 86.8955ZM124.093 88.0603L124.557 87.8724L123.993 86.4823L123.529 86.6702L124.093 88.0603ZM85.1368 67.0916C101.359 63.9383 117.13 72.8874 123.116 87.6471L124.506 87.0834C118.256 71.6717 101.791 62.3264 84.8506 65.6192L85.1368 67.0916ZM58.2542 106.947C54.6719 88.5176 66.7077 70.6739 85.1368 67.0916L84.8506 65.6192C65.6083 69.3595 53.0414 87.9906 56.7818 107.233L58.2542 106.947ZM57.1703 107.921L57.6611 107.826L57.3749 106.354L56.8841 106.449L57.1703 107.921ZM98.491 135.793C118.004 132 130.748 113.106 126.955 93.5926L125.483 93.8788C129.118 112.579 116.905 130.685 98.2048 134.32L98.491 135.793ZM58.0739 113.515C64.2528 129.448 81.1254 139.168 98.491 135.793L98.2048 134.32C81.5645 137.555 65.3935 128.24 59.4724 112.972L58.0739 113.515ZM58.9681 112.363L58.502 112.544L59.0443 113.943L59.5105 113.762L58.9681 112.363ZM98.1093 133.829C81.7108 137.017 65.7737 127.838 59.9386 112.792L58.54 113.334C64.633 129.045 81.2718 138.63 98.3956 135.302L98.1093 133.829ZM124.992 93.9742C128.574 112.403 116.538 130.247 98.1093 133.829L98.3956 135.302C117.638 131.562 130.205 112.93 126.464 93.688L124.992 93.9742ZM126.076 92.9995L125.585 93.0949L125.871 94.5674L126.362 94.472L126.076 92.9995Z" fill="#13C636"/>
<path d="M99.2319 65.8381L104.821 47.5688" stroke="#13C636" stroke-width="1.5"/>
<path d="M65.5226 124.46L57.9058 133.437" stroke="#13C636" stroke-width="1.5"/>
<path d="M98.623 134.46L100.042 143.321" stroke="#13C636" stroke-width="1.5"/>
<path d="M74.5788 68.9004L70.0986 60.697" stroke="#13C636" stroke-width="1.5" stroke-linecap="round"/>
<path d="M126.623 108.46L135.623 111.46" stroke="#13C636" stroke-width="1.5" stroke-linecap="round"/>
<circle cx="106.213" cy="44.4661" r="3.25" transform="rotate(18 106.213 44.4661)" stroke="#13C636" stroke-width="1.5"/>
<circle cx="52.8296" cy="138.351" r="6.5949" transform="rotate(-139 52.8296 138.351)" stroke="#13C636" stroke-width="1.5"/>
<circle cx="101.573" cy="155.044" r="11.2689" transform="rotate(-139 101.573 155.044)" stroke="#13C636" stroke-width="1.5"/>
<circle cx="65.3569" cy="53.5086" r="6.67719" transform="rotate(-29 65.3569 53.5086)" fill="#E7F9EA"/>
<circle cx="142.764" cy="117.845" r="5" transform="rotate(109 142.764 117.845)" fill="#E7F9EA"/>
<circle cx="119.182" cy="61.7608" r="2.00316" transform="rotate(-29 119.182 61.7608)" fill="#E7F9EA"/>
<circle cx="82.457" cy="37.7232" r="2.00316" transform="rotate(-29 82.457 37.7232)" fill="#E7F9EA"/>
<circle cx="39.7231" cy="93.8116" r="2.00316" transform="rotate(-29 39.7231 93.8116)" fill="#E7F9EA"/>
<circle cx="134.723" cy="141.812" r="2.00316" transform="rotate(-29 134.723 141.812)" fill="#E7F9EA"/>
<circle cx="142.213" cy="113.466" r="3.25" transform="rotate(18 142.213 113.466)" stroke="#13C636" stroke-width="1.5"/>
<path d="M109.623 120.927C109.623 117.407 108.137 115.509 108.137 115.509C107.726 115.132 107.361 114.991 107.315 114.991C107.042 114.897 101.335 112.117 99.3717 111.458C98.0934 110.987 97.8195 110.186 97.8195 110.139L97.9122 106.588C97.9122 106.588 99.4763 105.156 99.3717 103.638V103.591C99.6456 103.591 99.9652 103.497 100.193 103.308C100.513 103.073 100.741 102.696 100.833 102.272L101.335 99.2569C101.426 98.5974 101.152 97.9379 100.604 97.6081C101.609 95.2527 103.024 90.6361 100.239 88.0451C97.8195 85.7839 94.3498 84.6533 90.6975 84.9831C88.3692 85.1715 86.3604 85.9253 85.5843 86.9616C84.9452 87.8096 84.6712 88.5162 84.5799 89.0344C83.7125 89.2699 83.2103 89.741 82.8907 90.165C82.1146 91.2014 82.069 92.5204 82.2972 93.4626C82.5255 94.3576 83.256 96.1949 83.8495 97.5139C83.2103 97.7966 82.7994 98.5032 82.8907 99.2569L83.3929 102.272C83.4386 102.696 83.6669 103.073 84.0321 103.308C84.2603 103.45 84.4886 103.544 84.7625 103.591V103.685C84.7625 104.769 85.2191 105.805 85.9495 106.559V110.61C85.9495 110.61 85.8582 110.798 85.5843 111.081C85.4017 111.222 85.1734 111.317 84.8538 111.458C82.8907 112.117 77.184 114.897 76.9101 114.991C76.8645 114.991 76.5449 115.18 76.0883 115.509C75.3122 116.027 73.623 117.488 73.623 120.927" stroke="#13C636" stroke-width="1.5" stroke-linecap="round" stroke-linejoin="round"/>
</svg>
