<?xml version="1.0" encoding="UTF-8"?>
<svg viewBox="0 0 186 207" version="1.1" xmlns="http://www.w3.org/2000/svg" xmlns:xlink="http://www.w3.org/1999/xlink">
    <g id="Reputation-icon" stroke="none" stroke-width="1" fill="none" fill-rule="evenodd">
        <g id="Group-22" transform="translate(34.000000, 40.000000)">
            <g id="Group" transform="translate(53.670759, 68.789446) rotate(-16.000000) translate(-53.670759, -68.789446) translate(11.170759, 22.289446)" stroke="#00C636" stroke-linecap="round" stroke-width="1.5">
                <g id="Group-2">
                    <path d="M0,52.1999904 C7.77321884,53.3899245 13.5001692,52.6822354 17.1808511,50.0769231" id="Path-3"></path>
                    <path d="M17.8089042,55.320068 C15.7366753,49.0027246 18.7923557,42.1599845 26.9759455,34.7918477 C39.25133,23.7396424 39.6167516,18.6976332 38.1476864,12.6573618 C36.6786211,6.6170904 34.7526932,0 44.9047155,0 C55.0567378,0 57.1424691,19.4985362 57.1424691,27.660034 C57.1424691,35.8215318 63.613285,32.1923077 72.6027602,34.4147755 C81.5922354,36.6372433 84.0339977,38.8067017 84.8723923,45.4882175 C85.7107869,52.1697333 82.422609,57.1458296 74.8695929,59.0188075 C67.3165769,60.8917855 53.3844341,65.0514554 49.6828115,64.2933506 C45.9811888,63.5352459 43.1677988,62.3326343 43.1677988,57.8742903 C43.1677988,53.4159464 45.8664125,47.7232074 56.2610333,45.4882175 C66.6556541,43.2532277 70.4733885,42.633378 70.4733885,41.5668588" id="Path-4"></path>
                    <path d="M44.035132,61.966724 C39.3777664,67.5554589 39.8883616,72.1017255 45.5669177,75.6055238 C54.0847518,80.8612212 81.8322524,68.6257313 84.0957447,64.1559183 C86.359237,59.6861053 82.2945679,58.2026425 80.4230462,56.9682044" id="Path-5"></path>
                    <path d="M45.6033467,76.4147415 C44.5677763,80.9467917 45.5914588,83.8188707 48.6743942,85.0309783 C53.2987973,86.8491397 61.3986346,85.2482463 66.2495844,83.8924006 C71.1005341,82.5365549 80.3557182,78.0875561 81.3829787,74.1268862 C82.0678191,71.4864396 81.5579395,69.5657428 79.8533399,68.3647959" id="Path-6"></path>
                    <path d="M52.4928257,86.4686815 C52.1237556,91.1745487 53.9747166,93.3374547 58.0457087,92.9573995 C64.1521968,92.3873166 76.3252703,87.5544946 76.3252703,83.9436093 C76.3252703,81.5363525 74.8757311,80.8269696 71.9766529,81.8154605" id="Path-7"></path>
                    <path d="M1.80851064,90.7491898 C12.0874782,87.0273645 19.4642849,85.8970814 23.9389308,87.3583404 C30.6508996,89.5502288 36.49501,94.4361567 49.7340426,92.5926733" id="Path-8"></path>
                </g>
            </g>
            <circle id="Oval" fill-opacity="0.1" fill="#00C636" cx="108.76293" cy="15.8816167" r="14"></circle>
            <g id="Group-13" transform="translate(100.690703, 24.100465) rotate(32.000000) translate(-100.690703, -24.100465) translate(80.243468, 8.458567)">
                <line x1="27.4968074" y1="31.1239816" x2="37.1175409" y2="21.7760875" id="Path-2" stroke="#00C636" stroke-width="2" stroke-linecap="round"></line>
                <line x1="19.8624094" y1="30.4816822" x2="21.9409751" y2="5.86828021" id="Path-9" stroke="#00C636" stroke-width="2" stroke-linecap="round"></line>
                <line x1="12.7147199" y1="30.9941265" x2="3.34624317" y2="20.9120284" id="Path-10" stroke="#00C636" stroke-width="2" stroke-linecap="round"></line>
                <circle id="Oval" fill="#00C636" cx="1" cy="18.2837955" r="1"></circle>
                <circle id="Oval-Copy" fill="#00C636" transform="translate(22.252754, 1.083350) rotate(5.000000) translate(-22.252754, -1.083350) " cx="22.2527541" cy="1.08335044" r="1"></circle>
                <circle id="Oval-Copy-2" fill="#00C636" transform="translate(39.795418, 19.345010) rotate(6.000000) translate(-39.795418, -19.345010) " cx="39.7954183" cy="19.3450101" r="1"></circle>
            </g>
        </g>
    </g>
</svg>