<svg viewBox="0 0 186 207" fill="none" xmlns="http://www.w3.org/2000/svg">
<circle cx="90.623" cy="95.4604" r="45.25" stroke="#13C636" stroke-width="1.5"/>
<path fill-rule="evenodd" clip-rule="evenodd" d="M91.0097 67.0707C90.7453 64.7729 92.1705 62.6242 94.452 62.244C97.2555 61.7768 100.97 61.5879 103.359 63.1475C107.62 65.93 109.524 68.7878 105.226 71.1994C100.929 73.611 96.1085 73.4381 96.1085 75.787C96.1085 78.136 92.9472 76.7075 92.0844 73.611C91.6434 72.0284 91.2697 69.3306 91.0097 67.0707Z" fill="#E7F9EA"/>
<path fill-rule="evenodd" clip-rule="evenodd" d="M88.0097 62.0707C87.7453 59.7729 89.1705 57.6242 91.452 57.244C94.2555 56.7768 97.9702 56.5879 100.359 58.1475C104.62 60.93 106.524 63.7878 102.226 66.1994C97.9289 68.611 93.1085 68.4381 93.1085 70.787C93.1085 73.136 89.9472 71.7075 89.0844 68.611C88.6434 67.0284 88.2697 64.3306 88.0097 62.0707Z" stroke="#13C636" stroke-width="1.5"/>
<path d="M134.926 90.1091C134.926 90.1091 129.656 88.2676 127.704 90.1091C125.752 91.9506 123.522 86.8868 120.405 88.1616C117.287 89.4365 110.141 93.1193 111.162 100.842C112.183 108.564 116.135 110.584 119.401 109.574C122.666 108.564 127.704 104.161 127.704 108.922C127.704 113.683 126.094 115.927 124.38 118.428C122.666 120.929 121.056 123.513 124.38 124.913" stroke="#13C636" stroke-width="1.5"/>
<path d="M77.6451 52.1328C77.6451 52.1328 75.0379 59.5091 76.7826 62.6266C78.5272 65.7442 83.2577 65.2656 84.5228 68.6106C85.7879 71.9557 84.5427 75.6651 80.2954 77.2837C76.0481 78.9022 73.554 77.5721 71.9553 82.7625C70.3566 87.9528 67.8958 89.4163 64.1504 87.9528C60.405 86.4893 60.3098 94.0119 63.6504 95.0829C66.991 96.154 67.7679 102.905 64.1504 101.762C60.5329 100.618 52.3991 96.4111 52.3991 91.4502C52.3991 86.4893 51.819 84.2017 50.0694 83.4821C48.3199 82.7625 46.7236 83.9762 46.7236 83.9762" stroke="#13C636" stroke-width="1.5"/>
<path fill-rule="evenodd" clip-rule="evenodd" d="M82.3859 112.792C81.7506 112.96 80.8801 112.976 80.3864 112.542C79.0474 111.365 76.4251 109.748 73.8323 112.056C70.13 115.352 71.1943 118.665 73.6133 119.981C76.0322 121.297 76.3588 128.058 78.8281 131.179C81.2974 134.3 83.4525 138.322 85.6816 136.017C87.9106 133.713 86.4329 130.453 88.6426 128.54C90.8523 126.627 95.9479 125.458 94.9149 121.028C93.8819 116.598 91.6036 116.12 88.6426 116.359C85.6816 116.598 86.7287 114.127 84.5335 113.092C83.6208 112.661 82.9077 112.654 82.3859 112.792Z" fill="#E7F9EA"/>
<path fill-rule="evenodd" clip-rule="evenodd" d="M77.772 106.144C77.1502 106.357 76.2887 106.37 75.8025 105.927C74.3203 104.579 71.2306 102.531 68.1767 105.25C63.9466 109.016 65.1627 112.801 67.9264 114.304C70.6901 115.808 71.0634 123.533 73.8847 127.099C76.7059 130.665 79.1683 135.259 81.7151 132.626C84.2619 129.993 82.5735 126.269 85.0982 124.083C87.6229 121.897 93.4449 120.562 92.2646 115.5C91.0844 110.439 88.4813 109.893 85.0982 110.166C81.7151 110.439 82.9115 107.616 80.4034 106.433C79.253 105.89 78.38 105.936 77.772 106.144Z" stroke="#13C636" stroke-width="1.5"/>
<path d="M41.4681 110.011C36.0869 115.986 33.7515 121.151 35.4895 124.562C39.8773 133.173 68.5661 127.349 99.5678 111.553C130.569 95.757 152.144 75.9706 147.756 67.3591C146.313 64.5267 142.241 63.2559 136.323 63.388" stroke="#13C636" stroke-width="1.5" stroke-linecap="round"/>
<path d="M138.815 58.8638L135.323 63.388L138.815 68.1568" stroke="#13C636" stroke-width="1.5" stroke-linecap="round" stroke-linejoin="round"/>
</svg>
